<svg xmlns="http://www.w3.org/2000/svg" xmlns:xlink="http://www.w3.org/1999/xlink" width="289.852" height="267.804" viewBox="0 0 289.852 267.804">
  <defs>
    <filter id="Path_1" x="83.623" y="0" width="183.757" height="242.945" filterUnits="userSpaceOnUse">
      <feOffset dx="3" dy="11" input="SourceAlpha"/>
      <feGaussianBlur stdDeviation="3" result="blur"/>
      <feFlood flood-opacity="0.161"/>
      <feComposite operator="in" in2="blur"/>
      <feComposite in="SourceGraphic"/>
    </filter>
    <filter id="Path_2" x="0" y="0.622" width="289.852" height="267.182" filterUnits="userSpaceOnUse">
      <feOffset dx="3" dy="11" input="SourceAlpha"/>
      <feGaussianBlur stdDeviation="3" result="blur-2"/>
      <feFlood flood-opacity="0.161"/>
      <feComposite operator="in" in2="blur-2"/>
      <feComposite in="SourceGraphic"/>
    </filter>
  </defs>
  <g id="Group_22" data-name="Group 22" transform="translate(-1386.178 -525.425)">
    <g id="Group_21" data-name="Group 21" transform="translate(650.926 397.359)">
      <g id="Group_4" data-name="Group 4" transform="translate(741.777 128.066)">
        <g id="Group_1" data-name="Group 1" opacity="0.44">
          <g transform="matrix(1, 0, 0, 1, -6.52, 0)" filter="url(#Path_1)">
            <path id="Path_1-2" data-name="Path 1" d="M82.878,0c34.066,2.146,82.878,49.816,82.878,111.268s-26.933,116.5-82.878,111.268S0,172.719,0,111.267,48.812-2.146,82.878,0Z" transform="translate(89.62 0.06)" fill="#ffe3e3"/>
          </g>
          <g transform="matrix(1, 0, 0, 1, -6.52, 0)" filter="url(#Path_2)">
            <path id="Path_2-2" data-name="Path 2" d="M83.643-.309c34.371,1.973,83.421,48.989,83.148,109.88S139.091,225.132,82.653,220.2-.769,171.207-.5,110.316,49.272-2.282,83.643-.309Z" transform="matrix(-0.44, 0.9, -0.9, -0.44, 277.31, 97.73)" fill="#73d5ff"/>
          </g>
        </g>
      </g>
    </g>
    <path id="Icon_akar-book" data-name="Icon akar-book" d="M3,33.774S14.123,20.236,40.078,20.236,77.155,33.774,77.155,33.774V149.091s-11.123-27.323-37.078-27.323S3,128.537,3,128.537V67.08l59.919,3.613L3,52.247Zm74.155,0s11.123-13.538,37.078-13.538S151.31,2.392,151.31,2.392s9.269,77.037,0,106.881-11.123,12.495-37.078,12.495-37.078,27.323-37.078,27.323Z" transform="translate(1508.6 612)" fill="none" stroke="#000" stroke-linecap="round" stroke-linejoin="round" stroke-width="7"/>
  </g>
</svg>
